<svg width="103" height="149" viewBox="0 0 103 149" fill="none" xmlns="http://www.w3.org/2000/svg">
<path d="M8.928 55.256V54.608H15.048V55.256L13.728 55.376C13.472 55.408 13.32 55.472 13.272 55.568C13.224 55.664 13.2 55.992 13.2 56.552V62H12.624C12.32 61.536 11.96 61.168 11.544 60.896C11.08 61.312 10.536 61.64 9.912 61.88C9.304 62.12 8.6 62.24 7.8 62.24C6.52 62.24 5.432 61.928 4.536 61.304C3.64 60.664 2.952 59.776 2.472 58.64C2.008 57.504 1.776 56.184 1.776 54.68V52.88C1.776 51.408 2.008 50.112 2.472 48.992C2.952 47.872 3.648 47 4.56 46.376C5.488 45.752 6.608 45.44 7.92 45.44C9.184 45.44 10.224 45.68 11.04 46.16C11.872 46.624 12.464 47.24 12.816 48.008C13.184 48.776 13.304 49.6 13.176 50.48L11.112 50.984C11.288 49.448 11.096 48.272 10.536 47.456C9.976 46.624 9.104 46.208 7.92 46.208C6.64 46.208 5.672 46.656 5.016 47.552C4.376 48.448 4.056 49.872 4.056 51.824V55.832C4.056 57.784 4.384 59.216 5.04 60.128C5.712 61.024 6.696 61.472 7.992 61.472C8.648 61.472 9.256 61.352 9.816 61.112C10.392 60.872 10.872 60.488 11.256 59.96V56.552C11.256 55.992 11.232 55.664 11.184 55.568C11.136 55.456 10.984 55.392 10.728 55.376L8.928 55.256ZM26.3139 62.168C25.0659 62.168 24.3299 61.592 24.1059 60.44C23.5459 61.08 22.9299 61.544 22.2579 61.832C21.5859 62.104 20.9219 62.24 20.2659 62.24C19.1459 62.24 18.3219 61.928 17.7939 61.304C17.2659 60.68 17.0019 59.928 17.0019 59.048C17.0019 58.104 17.3219 57.36 17.9619 56.816C18.6179 56.256 19.7459 55.976 21.3459 55.976H24.0579V54.032C24.0579 52.752 23.8339 51.872 23.3859 51.392C22.9539 50.896 22.3619 50.648 21.6099 50.648C21.1299 50.648 20.6979 50.744 20.3139 50.936C19.9299 51.128 19.6499 51.48 19.4739 51.992C19.3139 52.488 19.2979 53.216 19.4259 54.176L17.5299 53.888C17.4499 53.136 17.5459 52.464 17.8179 51.872C18.1059 51.264 18.5699 50.784 19.2099 50.432C19.8659 50.064 20.6819 49.88 21.6579 49.88C22.8259 49.88 23.7219 50.08 24.3459 50.48C24.9699 50.864 25.4019 51.368 25.6419 51.992C25.8979 52.616 26.0259 53.296 26.0259 54.032V59.432C26.0259 60.248 26.1139 60.76 26.2899 60.968C26.4819 61.176 26.6899 61.28 26.9139 61.28C27.0579 61.28 27.2099 61.248 27.3699 61.184C27.5299 61.104 27.7059 60.984 27.8979 60.824L28.3299 61.424C28.0899 61.632 27.8019 61.808 27.4659 61.952C27.1459 62.096 26.7619 62.168 26.3139 62.168ZM20.9379 61.232C21.3859 61.232 21.8659 61.112 22.3779 60.872C22.9059 60.616 23.4659 60.112 24.0579 59.36V56.744H21.6099C20.7139 56.744 20.0579 56.928 19.6419 57.296C19.2419 57.648 19.0419 58.2 19.0419 58.952C19.0419 59.672 19.1939 60.232 19.4979 60.632C19.8179 61.032 20.2979 61.232 20.9379 61.232ZM29.2189 44.888V44.24H33.0349V60.056C33.0349 60.616 33.0589 60.944 33.1069 61.04C33.1549 61.136 33.3069 61.2 33.5629 61.232L34.8829 61.376V62H29.2189V61.376L30.5389 61.232C30.7949 61.2 30.9469 61.136 30.9949 61.04C31.0429 60.944 31.0669 60.616 31.0669 60.056V46.184C31.0669 45.624 31.0429 45.296 30.9949 45.2C30.9469 45.104 30.7949 45.04 30.5389 45.008L29.2189 44.888ZM36.2501 44.888V44.24H40.0661V60.056C40.0661 60.616 40.0901 60.944 40.1381 61.04C40.1861 61.136 40.3381 61.2 40.5941 61.232L41.9141 61.376V62H36.2501V61.376L37.5701 61.232C37.8261 61.2 37.9781 61.136 38.0261 61.04C38.0741 60.944 38.0981 60.616 38.0981 60.056V46.184C38.0981 45.624 38.0741 45.296 38.0261 45.2C37.9781 45.104 37.8261 45.04 37.5701 45.008L36.2501 44.888ZM53.6734 59.264C53.3854 60.352 52.8414 61.12 52.0414 61.568C51.2574 62.016 50.3854 62.24 49.4254 62.24C47.6494 62.24 46.3214 61.704 45.4414 60.632C44.5614 59.544 44.1214 58.096 44.1214 56.288V55.808C44.1214 54.016 44.5454 52.584 45.3934 51.512C46.2414 50.424 47.4734 49.88 49.0894 49.88C49.9534 49.88 50.7374 50.056 51.4414 50.408C52.1614 50.76 52.7294 51.28 53.1454 51.968C53.5774 52.656 53.7934 53.512 53.7934 54.536C53.7934 55.016 53.7454 55.52 53.6494 56.048H46.2814V56.768C46.2814 58.448 46.5374 59.656 47.0494 60.392C47.5774 61.112 48.4254 61.472 49.5934 61.472C50.3294 61.472 50.9374 61.28 51.4174 60.896C51.9134 60.512 52.2414 59.848 52.4014 58.904L53.6734 59.264ZM49.0894 50.648C48.1454 50.648 47.4414 51.008 46.9774 51.728C46.5134 52.448 46.2814 53.632 46.2814 55.28H51.6814V55.208C51.7134 55 51.7374 54.8 51.7534 54.608C51.7694 54.4 51.7774 54.216 51.7774 54.056C51.7774 52.856 51.5294 51.992 51.0334 51.464C50.5374 50.92 49.8894 50.648 49.0894 50.648ZM56.0588 50.768V50.12H59.7548V52.04C60.3148 51.288 60.8748 50.744 61.4348 50.408C62.0108 50.056 62.5948 49.88 63.1868 49.88C63.6988 49.88 64.1788 50.032 64.6268 50.336C65.0748 50.64 65.4508 51.128 65.7548 51.8L64.1948 52.736C63.9548 52.16 63.6828 51.76 63.3788 51.536C63.0748 51.312 62.7388 51.2 62.3708 51.2C61.9708 51.2 61.5708 51.328 61.1708 51.584C60.7868 51.84 60.3548 52.32 59.8748 53.024V60.056C59.8748 60.616 59.8988 60.952 59.9468 61.064C59.9948 61.16 60.1468 61.216 60.4028 61.232L62.2028 61.376V62H56.0588V61.376L57.3788 61.232C57.6348 61.2 57.7868 61.136 57.8348 61.04C57.8828 60.944 57.9068 60.616 57.9068 60.056V52.064C57.9068 51.504 57.8828 51.176 57.8348 51.08C57.7868 50.984 57.6348 50.92 57.3788 50.888L56.0588 50.768ZM72.4856 63.2C72.1336 64.176 71.7496 64.968 71.3336 65.576C70.9176 66.2 70.4216 66.648 69.8456 66.92C69.2696 67.208 68.5496 67.352 67.6856 67.352V65.432C68.8376 65.432 69.7096 65.248 70.3016 64.88C70.8936 64.528 71.3656 63.864 71.7176 62.888L72.0296 62H71.3336L67.8056 51.92C67.6456 51.456 67.5256 51.184 67.4456 51.104C67.3656 51.008 67.1976 50.944 66.9416 50.912L65.7176 50.768V50.12H71.1896V50.768L69.9656 50.912C69.7416 50.928 69.6136 50.984 69.5816 51.08C69.5496 51.176 69.6136 51.456 69.7736 51.92L72.6536 60.224L75.5576 51.896C75.7016 51.432 75.7576 51.16 75.7256 51.08C75.7096 51 75.5816 50.944 75.3416 50.912L74.0936 50.768V50.12H78.4856V50.768L77.2616 50.912C77.0216 50.944 76.8616 51 76.7816 51.08C76.7016 51.16 76.5816 51.432 76.4216 51.896L72.4856 63.2ZM62.964 90.376V91H57.18V90.376L58.5 90.232C58.756 90.2 58.908 90.136 58.956 90.04C59.004 89.928 59.028 89.6 59.028 89.056V76.048L54.036 89.08H52.404L47.388 76.048V89.056C47.388 89.6 47.412 89.928 47.46 90.04C47.508 90.136 47.66 90.2 47.916 90.232L49.236 90.376V91H44.652V90.376L45.972 90.232C46.228 90.2 46.38 90.136 46.428 90.04C46.476 89.928 46.5 89.6 46.5 89.056V76.624C46.5 76.08 46.476 75.76 46.428 75.664C46.38 75.552 46.228 75.48 45.972 75.448L44.652 75.328V74.68H49.044L53.868 87.28L58.692 74.68H62.964V75.328L61.644 75.448C61.388 75.48 61.236 75.552 61.188 75.664C61.14 75.76 61.116 76.08 61.116 76.624V89.056C61.116 89.6 61.14 89.928 61.188 90.04C61.236 90.136 61.388 90.2 61.644 90.232L62.964 90.376ZM77.8284 90.376V91H74.1324V89.08C73.5724 89.832 72.9324 90.384 72.2124 90.736C71.5084 91.072 70.8044 91.24 70.1004 91.24C68.9644 91.24 68.0764 90.88 67.4364 90.16C66.8124 89.424 66.5004 88.392 66.5004 87.064V81.064C66.5004 80.504 66.4764 80.176 66.4284 80.08C66.3804 79.984 66.2284 79.92 65.9724 79.888L64.6524 79.768V79.12H68.4684V87.04C68.4684 88.224 68.6444 89.064 68.9964 89.56C69.3644 90.04 69.8924 90.28 70.5804 90.28C71.0924 90.28 71.6524 90.12 72.2604 89.8C72.8844 89.48 73.4684 88.864 74.0124 87.952V81.064C74.0124 80.504 73.9884 80.176 73.9404 80.08C73.8924 79.968 73.7404 79.904 73.4844 79.888L71.6844 79.768V79.12H75.9804V89.056C75.9804 89.616 76.0044 89.944 76.0524 90.04C76.1004 90.136 76.2524 90.2 76.5084 90.232L77.8284 90.376ZM84.4196 86.152L82.9556 85.792C80.9556 85.28 79.9556 84.128 79.9556 82.336C79.9556 81.744 80.0916 81.184 80.3636 80.656C80.6356 80.128 81.0676 79.704 81.6596 79.384C82.2676 79.048 83.0436 78.88 83.9876 78.88C85.0436 78.88 85.8916 79.056 86.5316 79.408C87.1716 79.76 87.6196 80.216 87.8756 80.776C88.1316 81.336 88.2116 81.944 88.1156 82.6L86.2436 82.936C86.4356 81.896 86.3236 81.088 85.9076 80.512C85.5076 79.936 84.8436 79.648 83.9156 79.648C83.1956 79.648 82.6196 79.832 82.1876 80.2C81.7556 80.552 81.5396 81.072 81.5396 81.76C81.5396 82.272 81.6996 82.728 82.0196 83.128C82.3396 83.512 82.8756 83.8 83.6276 83.992L85.1396 84.352C86.1956 84.608 87.0116 85.016 87.5876 85.576C88.1796 86.136 88.4756 86.872 88.4756 87.784C88.4756 88.808 88.0996 89.64 87.3476 90.28C86.6116 90.92 85.5556 91.24 84.1796 91.24C83.5236 91.24 82.8836 91.144 82.2596 90.952C81.6516 90.744 81.1156 90.424 80.6516 89.992C80.2036 89.544 79.8756 88.968 79.6676 88.264L81.0116 87.784C81.1876 88.792 81.5716 89.496 82.1636 89.896C82.7556 90.296 83.4356 90.496 84.2036 90.496C84.6516 90.496 85.0756 90.424 85.4756 90.28C85.8916 90.136 86.2276 89.912 86.4836 89.608C86.7396 89.288 86.8676 88.88 86.8676 88.384C86.8676 87.872 86.6916 87.432 86.3396 87.064C85.9876 86.696 85.3476 86.392 84.4196 86.152ZM100.947 88.264C100.659 89.352 100.115 90.12 99.3148 90.568C98.5308 91.016 97.6588 91.24 96.6988 91.24C94.9228 91.24 93.5948 90.704 92.7148 89.632C91.8348 88.544 91.3948 87.096 91.3948 85.288V84.808C91.3948 83.016 91.8188 81.584 92.6668 80.512C93.5148 79.424 94.7468 78.88 96.3628 78.88C97.2268 78.88 98.0108 79.056 98.7148 79.408C99.4348 79.76 100.003 80.28 100.419 80.968C100.851 81.656 101.067 82.512 101.067 83.536C101.067 84.016 101.019 84.52 100.923 85.048H93.5548V85.768C93.5548 87.448 93.8108 88.656 94.3228 89.392C94.8508 90.112 95.6988 90.472 96.8668 90.472C97.6028 90.472 98.2108 90.28 98.6908 89.896C99.1868 89.512 99.5148 88.848 99.6748 87.904L100.947 88.264ZM96.3628 79.648C95.4188 79.648 94.7148 80.008 94.2508 80.728C93.7868 81.448 93.5548 82.632 93.5548 84.28H98.9548V84.208C98.9868 84 99.0108 83.8 99.0268 83.608C99.0428 83.4 99.0508 83.216 99.0508 83.056C99.0508 81.856 98.8028 80.992 98.3068 80.464C97.8108 79.92 97.1628 79.648 96.3628 79.648Z" fill="black"/>
<path d="M8.928 131.744V132.392H15.048V131.744L13.728 131.624C13.472 131.592 13.32 131.528 13.272 131.432C13.224 131.336 13.2 131.008 13.2 130.448V125H12.624C12.32 125.464 11.96 125.832 11.544 126.104C11.08 125.688 10.536 125.36 9.912 125.12C9.304 124.88 8.6 124.76 7.8 124.76C6.52 124.76 5.432 125.072 4.536 125.696C3.64 126.336 2.952 127.224 2.472 128.36C2.008 129.496 1.776 130.816 1.776 132.32V134.12C1.776 135.592 2.008 136.888 2.472 138.008C2.952 139.128 3.648 140 4.56 140.624C5.488 141.248 6.608 141.56 7.92 141.56C9.184 141.56 10.224 141.32 11.04 140.84C11.872 140.376 12.464 139.76 12.816 138.992C13.184 138.224 13.304 137.4 13.176 136.52L11.112 136.016C11.288 137.552 11.096 138.728 10.536 139.544C9.976 140.376 9.104 140.792 7.92 140.792C6.64 140.792 5.672 140.344 5.016 139.448C4.376 138.552 4.056 137.128 4.056 135.176V131.168C4.056 129.216 4.384 127.784 5.04 126.872C5.712 125.976 6.696 125.528 7.992 125.528C8.648 125.528 9.256 125.648 9.816 125.888C10.392 126.128 10.872 126.512 11.256 127.04V130.448C11.256 131.008 11.232 131.336 11.184 131.432C11.136 131.544 10.984 131.608 10.728 131.624L8.928 131.744ZM26.3139 124.832C25.0659 124.832 24.3299 125.408 24.1059 126.56C23.5459 125.92 22.9299 125.456 22.2579 125.168C21.5859 124.896 20.9219 124.76 20.2659 124.76C19.1459 124.76 18.3219 125.072 17.7939 125.696C17.2659 126.32 17.0019 127.072 17.0019 127.952C17.0019 128.896 17.3219 129.64 17.9619 130.184C18.6179 130.744 19.7459 131.024 21.3459 131.024H24.0579V132.968C24.0579 134.248 23.8339 135.128 23.3859 135.608C22.9539 136.104 22.3619 136.352 21.6099 136.352C21.1299 136.352 20.6979 136.256 20.3139 136.064C19.9299 135.872 19.6499 135.52 19.4739 135.008C19.3139 134.512 19.2979 133.784 19.4259 132.824L17.5299 133.112C17.4499 133.864 17.5459 134.536 17.8179 135.128C18.1059 135.736 18.5699 136.216 19.2099 136.568C19.8659 136.936 20.6819 137.12 21.6579 137.12C22.8259 137.12 23.7219 136.92 24.3459 136.52C24.9699 136.136 25.4019 135.632 25.6419 135.008C25.8979 134.384 26.0259 133.704 26.0259 132.968V127.568C26.0259 126.752 26.1139 126.24 26.2899 126.032C26.4819 125.824 26.6899 125.72 26.9139 125.72C27.0579 125.72 27.2099 125.752 27.3699 125.816C27.5299 125.896 27.7059 126.016 27.8979 126.176L28.3299 125.576C28.0899 125.368 27.8019 125.192 27.4659 125.048C27.1459 124.904 26.7619 124.832 26.3139 124.832ZM20.9379 125.768C21.3859 125.768 21.8659 125.888 22.3779 126.128C22.9059 126.384 23.4659 126.888 24.0579 127.64V130.256H21.6099C20.7139 130.256 20.0579 130.072 19.6419 129.704C19.2419 129.352 19.0419 128.8 19.0419 128.048C19.0419 127.328 19.1939 126.768 19.4979 126.368C19.8179 125.968 20.2979 125.768 20.9379 125.768ZM29.2189 142.112V142.76H33.0349V126.944C33.0349 126.384 33.0589 126.056 33.1069 125.96C33.1549 125.864 33.3069 125.8 33.5629 125.768L34.8829 125.624V125H29.2189V125.624L30.5389 125.768C30.7949 125.8 30.9469 125.864 30.9949 125.96C31.0429 126.056 31.0669 126.384 31.0669 126.944V140.816C31.0669 141.376 31.0429 141.704 30.9949 141.8C30.9469 141.896 30.7949 141.96 30.5389 141.992L29.2189 142.112ZM36.2501 142.112V142.76H40.0661V126.944C40.0661 126.384 40.0901 126.056 40.1381 125.96C40.1861 125.864 40.3381 125.8 40.5941 125.768L41.9141 125.624V125H36.2501V125.624L37.5701 125.768C37.8261 125.8 37.9781 125.864 38.0261 125.96C38.0741 126.056 38.0981 126.384 38.0981 126.944V140.816C38.0981 141.376 38.0741 141.704 38.0261 141.8C37.9781 141.896 37.8261 141.96 37.5701 141.992L36.2501 142.112ZM53.6734 127.736C53.3854 126.648 52.8414 125.88 52.0414 125.432C51.2574 124.984 50.3854 124.76 49.4254 124.76C47.6494 124.76 46.3214 125.296 45.4414 126.368C44.5614 127.456 44.1214 128.904 44.1214 130.712V131.192C44.1214 132.984 44.5454 134.416 45.3934 135.488C46.2414 136.576 47.4734 137.12 49.0894 137.12C49.9534 137.12 50.7374 136.944 51.4414 136.592C52.1614 136.24 52.7294 135.72 53.1454 135.032C53.5774 134.344 53.7934 133.488 53.7934 132.464C53.7934 131.984 53.7454 131.48 53.6494 130.952H46.2814V130.232C46.2814 128.552 46.5374 127.344 47.0494 126.608C47.5774 125.888 48.4254 125.528 49.5934 125.528C50.3294 125.528 50.9374 125.72 51.4174 126.104C51.9134 126.488 52.2414 127.152 52.4014 128.096L53.6734 127.736ZM49.0894 136.352C48.1454 136.352 47.4414 135.992 46.9774 135.272C46.5134 134.552 46.2814 133.368 46.2814 131.72H51.6814V131.792C51.7134 132 51.7374 132.2 51.7534 132.392C51.7694 132.6 51.7774 132.784 51.7774 132.944C51.7774 134.144 51.5294 135.008 51.0334 135.536C50.5374 136.08 49.8894 136.352 49.0894 136.352ZM56.0588 136.232V136.88H59.7548V134.96C60.3148 135.712 60.8748 136.256 61.4348 136.592C62.0108 136.944 62.5948 137.12 63.1868 137.12C63.6988 137.12 64.1788 136.968 64.6268 136.664C65.0748 136.36 65.4508 135.872 65.7548 135.2L64.1948 134.264C63.9548 134.84 63.6828 135.24 63.3788 135.464C63.0748 135.688 62.7388 135.8 62.3708 135.8C61.9708 135.8 61.5708 135.672 61.1708 135.416C60.7868 135.16 60.3548 134.68 59.8748 133.976V126.944C59.8748 126.384 59.8988 126.048 59.9468 125.936C59.9948 125.84 60.1468 125.784 60.4028 125.768L62.2028 125.624V125H56.0588V125.624L57.3788 125.768C57.6348 125.8 57.7868 125.864 57.8348 125.96C57.8828 126.056 57.9068 126.384 57.9068 126.944V134.936C57.9068 135.496 57.8828 135.824 57.8348 135.92C57.7868 136.016 57.6348 136.08 57.3788 136.112L56.0588 136.232ZM72.4856 123.8C72.1336 122.824 71.7496 122.032 71.3336 121.424C70.9176 120.8 70.4216 120.352 69.8456 120.08C69.2696 119.792 68.5496 119.648 67.6856 119.648V121.568C68.8376 121.568 69.7096 121.752 70.3016 122.12C70.8936 122.472 71.3656 123.136 71.7176 124.112L72.0296 125H71.3336L67.8056 135.08C67.6456 135.544 67.5256 135.816 67.4456 135.896C67.3656 135.992 67.1976 136.056 66.9416 136.088L65.7176 136.232V136.88H71.1896V136.232L69.9656 136.088C69.7416 136.072 69.6136 136.016 69.5816 135.92C69.5496 135.824 69.6136 135.544 69.7736 135.08L72.6536 126.776L75.5576 135.104C75.7016 135.568 75.7576 135.84 75.7256 135.92C75.7096 136 75.5816 136.056 75.3416 136.088L74.0936 136.232V136.88H78.4856V136.232L77.2616 136.088C77.0216 136.056 76.8616 136 76.7816 135.92C76.7016 135.84 76.5816 135.568 76.4216 135.104L72.4856 123.8ZM62.964 96.624V96H57.18V96.624L58.5 96.768C58.756 96.8 58.908 96.864 58.956 96.96C59.004 97.072 59.028 97.4 59.028 97.944V110.952L54.036 97.92H52.404L47.388 110.952V97.944C47.388 97.4 47.412 97.072 47.46 96.96C47.508 96.864 47.66 96.8 47.916 96.768L49.236 96.624V96H44.652V96.624L45.972 96.768C46.228 96.8 46.38 96.864 46.428 96.96C46.476 97.072 46.5 97.4 46.5 97.944V110.376C46.5 110.92 46.476 111.24 46.428 111.336C46.38 111.448 46.228 111.52 45.972 111.552L44.652 111.672V112.32H49.044L53.868 99.72L58.692 112.32H62.964V111.672L61.644 111.552C61.388 111.52 61.236 111.448 61.188 111.336C61.14 111.24 61.116 110.92 61.116 110.376V97.944C61.116 97.4 61.14 97.072 61.188 96.96C61.236 96.864 61.388 96.8 61.644 96.768L62.964 96.624ZM77.8284 96.624V96H74.1324V97.92C73.5724 97.168 72.9324 96.616 72.2124 96.264C71.5084 95.928 70.8044 95.76 70.1004 95.76C68.9644 95.76 68.0764 96.12 67.4364 96.84C66.8124 97.576 66.5004 98.608 66.5004 99.936V105.936C66.5004 106.496 66.4764 106.824 66.4284 106.92C66.3804 107.016 66.2284 107.08 65.9724 107.112L64.6524 107.232V107.88H68.4684V99.96C68.4684 98.776 68.6444 97.936 68.9964 97.44C69.3644 96.96 69.8924 96.72 70.5804 96.72C71.0924 96.72 71.6524 96.88 72.2604 97.2C72.8844 97.52 73.4684 98.136 74.0124 99.048V105.936C74.0124 106.496 73.9884 106.824 73.9404 106.92C73.8924 107.032 73.7404 107.096 73.4844 107.112L71.6844 107.232V107.88H75.9804V97.944C75.9804 97.384 76.0044 97.056 76.0524 96.96C76.1004 96.864 76.2524 96.8 76.5084 96.768L77.8284 96.624ZM84.4196 100.848L82.9556 101.208C80.9556 101.72 79.9556 102.872 79.9556 104.664C79.9556 105.256 80.0916 105.816 80.3636 106.344C80.6356 106.872 81.0676 107.296 81.6596 107.616C82.2676 107.952 83.0436 108.12 83.9876 108.12C85.0436 108.12 85.8916 107.944 86.5316 107.592C87.1716 107.24 87.6196 106.784 87.8756 106.224C88.1316 105.664 88.2116 105.056 88.1156 104.4L86.2436 104.064C86.4356 105.104 86.3236 105.912 85.9076 106.488C85.5076 107.064 84.8436 107.352 83.9156 107.352C83.1956 107.352 82.6196 107.168 82.1876 106.8C81.7556 106.448 81.5396 105.928 81.5396 105.24C81.5396 104.728 81.6996 104.272 82.0196 103.872C82.3396 103.488 82.8756 103.2 83.6276 103.008L85.1396 102.648C86.1956 102.392 87.0116 101.984 87.5876 101.424C88.1796 100.864 88.4756 100.128 88.4756 99.216C88.4756 98.192 88.0996 97.36 87.3476 96.72C86.6116 96.08 85.5556 95.76 84.1796 95.76C83.5236 95.76 82.8836 95.856 82.2596 96.048C81.6516 96.256 81.1156 96.576 80.6516 97.008C80.2036 97.456 79.8756 98.032 79.6676 98.736L81.0116 99.216C81.1876 98.208 81.5716 97.504 82.1636 97.104C82.7556 96.704 83.4356 96.504 84.2036 96.504C84.6516 96.504 85.0756 96.576 85.4756 96.72C85.8916 96.864 86.2276 97.088 86.4836 97.392C86.7396 97.712 86.8676 98.12 86.8676 98.616C86.8676 99.128 86.6916 99.568 86.3396 99.936C85.9876 100.304 85.3476 100.608 84.4196 100.848ZM100.947 98.736C100.659 97.648 100.115 96.88 99.3148 96.432C98.5308 95.984 97.6588 95.76 96.6988 95.76C94.9228 95.76 93.5948 96.296 92.7148 97.368C91.8348 98.456 91.3948 99.904 91.3948 101.712V102.192C91.3948 103.984 91.8188 105.416 92.6668 106.488C93.5148 107.576 94.7468 108.12 96.3628 108.12C97.2268 108.12 98.0108 107.944 98.7148 107.592C99.4348 107.24 100.003 106.72 100.419 106.032C100.851 105.344 101.067 104.488 101.067 103.464C101.067 102.984 101.019 102.48 100.923 101.952H93.5548V101.232C93.5548 99.552 93.8108 98.344 94.3228 97.608C94.8508 96.888 95.6988 96.528 96.8668 96.528C97.6028 96.528 98.2108 96.72 98.6908 97.104C99.1868 97.488 99.5148 98.152 99.6748 99.096L100.947 98.736ZM96.3628 107.352C95.4188 107.352 94.7148 106.992 94.2508 106.272C93.7868 105.552 93.5548 104.368 93.5548 102.72H98.9548V102.792C98.9868 103 99.0108 103.2 99.0268 103.392C99.0428 103.6 99.0508 103.784 99.0508 103.944C99.0508 105.144 98.8028 106.008 98.3068 106.536C97.8108 107.08 97.1628 107.352 96.3628 107.352Z" fill="black" fill-opacity="0.3"/>
</svg>
